<?xml version="1.0" standalone="no"?>
<!DOCTYPE svg PUBLIC "-//W3C//DTD SVG 20010904//EN"
 "http://www.w3.org/TR/2001/REC-SVG-20010904/DTD/svg10.dtd">
<svg version="1.0" xmlns="http://www.w3.org/2000/svg"
 width="225.000000pt" height="225.000000pt" viewBox="0 0 225.000000 225.000000"
 preserveAspectRatio="xMidYMid meet">
<metadata>
Created by potrace 1.14, written by Peter Selinger 2001-2017
</metadata>
<g transform="translate(0.000000,225.000000) scale(0.100000,-0.100000)"
fill="#000000" stroke="none">
<path d="M1037 2148 c-37 -5 -96 -17 -130 -29 -100 -33 -353 -175 -449 -250
-73 -59 -127 -165 -169 -334 -12 -49 -28 -97 -35 -105 -7 -9 -16 -47 -20 -85
-3 -39 -8 -81 -10 -95 -10 -57 -13 -528 -4 -570 6 -25 13 -74 15 -110 4 -55
15 -85 72 -199 39 -76 87 -155 113 -184 50 -56 127 -98 169 -91 153 26 688
283 1101 530 165 98 241 155 262 195 45 87 88 400 84 604 -2 98 -3 102 -53
200 -28 55 -56 127 -63 159 -16 79 -41 135 -74 168 -32 31 -98 64 -147 72 -19
3 -65 19 -101 36 -172 77 -373 109 -561 88z m-27 -184 c0 -2 -20 -24 -45 -49
-59 -60 -97 -117 -128 -190 -42 -102 -41 -113 5 -35 24 41 51 86 61 100 32 46
122 132 164 156 l41 25 97 -20 c325 -66 555 -329 564 -642 l2 -74 -76 -114
c-42 -62 -74 -115 -72 -117 5 -5 87 54 108 78 25 28 30 22 24 -29 -6 -57 -9
-59 100 77 76 94 116 161 150 253 10 26 20 45 23 42 5 -5 -18 -71 -51 -145
-23 -52 -85 -142 -173 -250 -50 -62 -62 -85 -68 -125 -10 -66 -44 -165 -64
-188 -73 -81 -703 -422 -1000 -541 -105 -43 -115 -45 -140 -32 -51 27 -133
121 -132 152 0 3 24 7 53 9 90 5 171 57 235 152 35 50 25 51 -10 1 -63 -87
-130 -128 -223 -136 -50 -4 -64 -1 -79 14 -18 17 -16 18 41 30 32 6 81 22 108
35 48 22 155 119 155 140 0 6 -12 -4 -27 -23 -45 -53 -64 -67 -141 -104 -57
-28 -83 -34 -119 -32 l-46 3 -35 70 c-20 39 -37 90 -40 115 l-4 46 113 -2
c169 -2 437 47 686 127 198 64 320 135 449 264 104 104 179 211 193 275 22
100 -13 217 -71 241 -34 14 -50 12 -267 -35 -62 -14 -152 -28 -200 -32 -148
-11 -871 -11 -871 1 0 20 31 141 51 201 16 51 27 67 59 88 22 14 42 26 44 26
3 0 0 -15 -5 -32 -5 -18 -9 -62 -8 -98 l0 -65 20 95 c11 52 28 106 38 120 22
30 140 94 236 127 90 32 275 63 275 47z m887 -248 c-5 -92 -32 -183 -87 -299
-44 -93 -33 -41 29 136 31 88 45 163 44 245 0 34 2 40 10 26 6 -10 7 -56 4
-108z m-248 -238 c43 -45 40 -164 -5 -250 -30 -55 -202 -238 -225 -238 -8 0
-5 8 8 23 51 57 132 157 162 200 l33 49 -33 -6 c-41 -6 -94 15 -109 45 -18 33
-16 103 3 133 22 32 41 34 31 4 -21 -67 3 -118 55 -118 35 0 50 17 58 64 7 48
-3 83 -27 91 -28 9 -25 25 5 25 13 0 33 -10 44 -22z m-706 -73 c70 -4 125 -10
123 -14 -3 -4 -35 -4 -73 0 -86 7 -509 4 -625 -6 -62 -5 -88 -4 -88 4 0 6 1
11 3 12 1 0 40 3 87 6 47 3 86 6 87 7 5 4 379 -3 486 -9z m619 3 c-30 -30 -3
-65 27 -35 10 10 12 8 9 -8 -5 -31 -62 -28 -66 3 -5 33 4 52 25 52 13 0 14 -3
5 -12z m-135 -37 c0 -43 41 -123 71 -140 14 -9 14 -10 1 -11 -52 -1 -114 131
-84 179 10 18 12 13 12 -28z m-294 12 c-7 -2 -21 -2 -30 0 -10 3 -4 5 12 5 17
0 24 -2 18 -5z m-50 -17 c73 -17 121 -49 143 -94 16 -30 19 -61 19 -167 0
-143 -11 -180 -72 -237 -29 -28 -127 -78 -152 -78 -8 0 -11 -3 -8 -6 8 -8 108
22 162 49 106 52 130 108 128 297 -2 144 -8 167 -46 190 -18 11 -25 20 -16 20
26 0 58 -38 70 -82 6 -24 12 -97 13 -163 1 -110 -1 -124 -24 -170 -32 -63 -91
-108 -176 -135 -93 -28 -111 -32 -179 -35 -33 -1 -107 -15 -164 -29 -102 -27
-171 -41 -241 -52 -19 -3 -46 -7 -60 -10 -37 -6 -231 -6 -238 1 -11 11 0 491
14 595 9 70 12 76 41 78 55 4 58 -5 58 -147 l-1 -129 -39 -63 c-37 -59 -40
-70 -42 -145 -1 -53 4 -99 14 -133 16 -49 18 -51 52 -50 20 1 49 4 65 8 l28 6
-2 200 c-1 171 -7 410 -9 453 -1 6 -13 12 -28 12 -14 0 -24 3 -20 6 3 3 74 8
159 11 84 3 154 6 155 7 11 9 354 2 396 -8z m280 -64 c32 -71 31 -289 -2 -351
-17 -30 -23 -26 -10 7 6 15 13 82 15 149 5 129 -10 197 -53 246 -18 20 -18 20
5 8 13 -7 33 -34 45 -59z"/>
<path d="M1684 928 c-56 -59 -174 -205 -174 -216 0 -4 13 9 28 28 38 49 119
139 156 175 41 40 61 65 49 65 -5 0 -32 -24 -59 -52z"/>
<path d="M1449 822 c-100 -107 -257 -224 -495 -370 -163 -100 -178 -135 -41
-97 141 39 277 86 277 94 0 9 -131 -19 -199 -44 -50 -17 -64 -14 -29 8 111 67
143 89 213 141 177 133 265 215 319 299 28 42 13 32 -45 -31z"/>
<path d="M569 590 c-15 -4 -78 -7 -142 -6 -130 1 -143 -13 -19 -21 81 -6 212
12 212 28 0 11 -15 10 -51 -1z"/>
<path d="M556 1342 c-2 -4 -7 -56 -10 -117 -4 -60 -8 -135 -11 -165 -3 -30 -7
-91 -10 -135 -3 -44 -8 -116 -11 -160 -4 -62 -3 -77 6 -68 7 6 13 24 15 40 4
52 16 178 20 213 2 19 7 71 10 115 3 44 8 91 10 105 2 14 7 57 10 96 5 59 4
72 -9 77 -8 3 -17 3 -20 -1z"/>
<path d="M660 1330 c-4 -8 -10 -34 -14 -58 -3 -24 -13 -84 -21 -135 -9 -51
-18 -105 -21 -122 -4 -26 -14 -85 -29 -165 -10 -58 -23 -145 -21 -147 4 -5
291 72 388 103 39 13 46 19 43 37 -2 12 -6 78 -10 147 -3 69 -9 166 -12 215
-3 50 -6 100 -7 113 0 20 -5 22 -55 22 -31 0 -96 2 -144 3 -71 2 -91 -1 -97
-13z"/>
<path d="M1037 1333 c-3 -5 -8 -82 -11 -173 -4 -91 -9 -203 -12 -248 l-5 -84
23 7 c47 15 96 45 121 75 36 42 49 98 50 210 1 115 -16 161 -72 189 -45 23
-88 33 -94 24z"/>
<path d="M960 770 c-21 -7 -21 -8 -5 -9 11 0 27 4 35 9 18 11 5 11 -30 0z"/>
</g>
</svg>
